# xmcd CD database file
#
# Track frame offsets:
#	150
#	10685
#	21676
#	34353
#	47706
#	57489
#	70886
#	83763
#	95593
#	107650
#	120154
#	134686
#	143094
#	157226
#	170793
#	181955
#	194716
#	208745
#	220063
#	230519
#
# Disc length: 3252 seconds
#
# Revision: 1
# Processed by: cddbd v1.5.2PL0 Copyright (c) Steve Scherf et al.
# Submitted via: jetAudio 7
#
DISCID=300cb214
DTITLE=The Statler Brothers - The Legendary Statler Brothers - Disc 1
DYEAR=1900
DGENRE=Country
TTITLE0=Flowers On The Wall
TTITLE1=Bed Of Rose's
TTITLE2=New York City
TTITLE3=Pictures
TTITLE4=Momemts To Remember
TTITLE5=You Can't Go Home
TTITLE6=Do You Remember These
TTITLE7=The Class Of '57
TTITLE8=Monday Morning Secretary
TTITLE9=Woman Without A Home
TTITLE10=Carry Me Back
TTITLE11=Whatever Happened To Randolph Scott
TTITLE12=Thank You World
TTITLE13=Susan When She Tried
TTITLE14=All American Girl
TTITLE15=I'll Go To My Grave Loving You
TTITLE16=You've Been Like A Mother To Me
TTITLE17=Your Picture In The Paper
TTITLE18=Thank God I've Got You
TTITLE19=How Great Thou Art
EXTD=
EXTT0=
EXTT1=
EXTT2=
EXTT3=
EXTT4=
EXTT5=
EXTT6=
EXTT7=
EXTT8=
EXTT9=
EXTT10=
EXTT11=
EXTT12=
EXTT13=
EXTT14=
EXTT15=
EXTT16=
EXTT17=
EXTT18=
EXTT19=
PLAYORDER=
